<svg width="16" height="16" viewBox="0 0 16 16" fill="none" xmlns="http://www.w3.org/2000/svg">
<path d="M12.436 11.73L14.389 13.682C14.4801 13.7763 14.5305 13.9026 14.5293 14.0337C14.5282 14.1648 14.4756 14.2902 14.3829 14.3829C14.2902 14.4756 14.1648 14.5282 14.0337 14.5294C13.9026 14.5305 13.7763 14.4801 13.682 14.389L11.729 12.436C10.4527 13.5295 8.8026 14.0861 7.1248 13.9891C5.44701 13.8921 3.87199 13.1491 2.73024 11.9158C1.58849 10.6826 0.968769 9.05513 1.00111 7.37484C1.03346 5.69456 1.71535 4.09211 2.90372 2.90375C4.09208 1.71538 5.69453 1.03349 7.37481 1.00114C9.0551 0.9688 10.6826 1.58852 11.9158 2.73027C13.149 3.87202 13.8921 5.44704 13.9891 7.12483C14.0861 8.80263 13.5294 10.4528 12.436 11.729V11.73ZM7.49999 13C8.95868 13 10.3576 12.4206 11.3891 11.3891C12.4205 10.3577 13 8.95871 13 7.50002C13 6.04133 12.4205 4.64238 11.3891 3.61093C10.3576 2.57948 8.95868 2.00002 7.49999 2.00002C6.0413 2.00002 4.64235 2.57948 3.6109 3.61093C2.57945 4.64238 1.99999 6.04133 1.99999 7.50002C1.99999 8.95871 2.57945 10.3577 3.6109 11.3891C4.64235 12.4206 6.0413 13 7.49999 13Z" fill="#9F9F9F"/>
</svg>
