<svg width="16" height="16" viewBox="0 0 16 16" fill="none" xmlns="http://www.w3.org/2000/svg">
<g clip-path="url(#clip0_2_800)">
<path d="M4.94167 8C4.04167 8.02976 3.30556 8.41072 2.73333 9.14286H1.61667C1.16111 9.14286 0.777778 9.02232 0.466667 8.78125C0.155556 8.54018 0 8.1875 0 7.72321C0 5.62202 0.344444 4.57143 1.03333 4.57143C1.06667 4.57143 1.1875 4.63393 1.39583 4.75893C1.60417 4.88393 1.875 5.01042 2.20833 5.13839C2.54167 5.26637 2.87222 5.33036 3.2 5.33036C3.57222 5.33036 3.94167 5.26191 4.30833 5.125C4.28056 5.34524 4.26667 5.54167 4.26667 5.71429C4.26667 6.54167 4.49167 7.30357 4.94167 8ZM13.8667 13.6875C13.8667 14.4018 13.6639 14.9658 13.2583 15.3795C12.8528 15.7932 12.3139 16 11.6417 16H4.35833C3.68611 16 3.14722 15.7932 2.74167 15.3795C2.33611 14.9658 2.13333 14.4018 2.13333 13.6875C2.13333 13.372 2.14306 13.064 2.1625 12.7634C2.18194 12.4628 2.22083 12.1384 2.27917 11.7902C2.3375 11.442 2.41111 11.119 2.5 10.8214C2.58889 10.5238 2.70833 10.2336 2.85833 9.95089C3.00833 9.66816 3.18056 9.42708 3.375 9.22768C3.56944 9.02827 3.80694 8.86905 4.0875 8.75C4.36806 8.63095 4.67778 8.57143 5.01667 8.57143C5.07222 8.57143 5.19167 8.63542 5.375 8.76339C5.55833 8.89137 5.76111 9.03423 5.98333 9.19197C6.20556 9.3497 6.50278 9.49256 6.875 9.62054C7.24722 9.74851 7.62222 9.8125 8 9.8125C8.37778 9.8125 8.75278 9.74851 9.125 9.62054C9.49722 9.49256 9.79445 9.3497 10.0167 9.19197C10.2389 9.03423 10.4417 8.89137 10.625 8.76339C10.8083 8.63542 10.9278 8.57143 10.9833 8.57143C11.3222 8.57143 11.6319 8.63095 11.9125 8.75C12.1931 8.86905 12.4306 9.02827 12.625 9.22768C12.8194 9.42708 12.9917 9.66816 13.1417 9.95089C13.2917 10.2336 13.4111 10.5238 13.5 10.8214C13.5889 11.119 13.6625 11.442 13.7208 11.7902C13.7792 12.1384 13.8181 12.4628 13.8375 12.7634C13.8569 13.064 13.8667 13.372 13.8667 13.6875ZM5.33333 2.28571C5.33333 2.91667 5.125 3.45536 4.70833 3.90179C4.29167 4.34821 3.78889 4.57143 3.2 4.57143C2.61111 4.57143 2.10833 4.34821 1.69167 3.90179C1.275 3.45536 1.06667 2.91667 1.06667 2.28571C1.06667 1.65476 1.275 1.11607 1.69167 0.669643C2.10833 0.223214 2.61111 0 3.2 0C3.78889 0 4.29167 0.223214 4.70833 0.669643C5.125 1.11607 5.33333 1.65476 5.33333 2.28571ZM11.2 5.71429C11.2 6.66071 10.8875 7.46875 10.2625 8.13839C9.6375 8.80804 8.88333 9.14286 8 9.14286C7.11667 9.14286 6.3625 8.80804 5.7375 8.13839C5.1125 7.46875 4.8 6.66071 4.8 5.71429C4.8 4.76786 5.1125 3.95982 5.7375 3.29018C6.3625 2.62054 7.11667 2.28571 8 2.28571C8.88333 2.28571 9.6375 2.62054 10.2625 3.29018C10.8875 3.95982 11.2 4.76786 11.2 5.71429ZM16 7.72321C16 8.1875 15.8444 8.54018 15.5333 8.78125C15.2222 9.02232 14.8389 9.14286 14.3833 9.14286H13.2667C12.6944 8.41072 11.9583 8.02976 11.0583 8C11.5083 7.30357 11.7333 6.54167 11.7333 5.71429C11.7333 5.54167 11.7194 5.34524 11.6917 5.125C12.0583 5.26191 12.4278 5.33036 12.8 5.33036C13.1278 5.33036 13.4583 5.26637 13.7917 5.13839C14.125 5.01042 14.3958 4.88393 14.6042 4.75893C14.8125 4.63393 14.9333 4.57143 14.9667 4.57143C15.6556 4.57143 16 5.62202 16 7.72321ZM14.9333 2.28571C14.9333 2.91667 14.725 3.45536 14.3083 3.90179C13.8917 4.34821 13.3889 4.57143 12.8 4.57143C12.2111 4.57143 11.7083 4.34821 11.2917 3.90179C10.875 3.45536 10.6667 2.91667 10.6667 2.28571C10.6667 1.65476 10.875 1.11607 11.2917 0.669643C11.7083 0.223214 12.2111 0 12.8 0C13.3889 0 13.8917 0.223214 14.3083 0.669643C14.725 1.11607 14.9333 1.65476 14.9333 2.28571Z" fill="#A1A1A1"/>
</g>
<defs>
<clipPath id="clip0_2_800">
<rect width="16" height="16" fill="white"/>
</clipPath>
</defs>
</svg>
