<svg width="16" height="16" viewBox="0 0 16 16" fill="none" xmlns="http://www.w3.org/2000/svg">
<g clip-path="url(#clip0_2_776)">
<path d="M11.8385 7.6068C12.092 7.03501 12.2239 6.42634 12.2328 5.78458C12.4205 5.81499 12.6097 5.83036 12.8 5.83036C13.1943 5.83036 13.5855 5.75314 13.9709 5.60517C14.3199 5.47116 14.6196 5.33275 14.8614 5.18767C14.9297 5.1467 14.9847 5.11486 15.0275 5.09109C15.0839 5.1274 15.1729 5.22955 15.2666 5.51515C15.4135 5.96332 15.5 6.6869 15.5 7.72321C15.5 8.0641 15.3933 8.25725 15.2271 8.38602C15.017 8.5488 14.7462 8.64286 14.3833 8.64286H13.5009C13.0374 8.11934 12.4802 7.77087 11.8385 7.6068ZM14.9676 5.07139C14.9689 5.07132 14.9712 5.0712 14.9743 5.07137C14.9718 5.07141 14.9693 5.07143 14.9667 5.07143C14.9669 5.07143 14.9672 5.07141 14.9676 5.07139ZM3.76716 5.78458C3.77612 6.42634 3.90798 7.03501 4.16151 7.6068C3.51983 7.77087 2.96258 8.11934 2.49911 8.64286H1.61667C1.25376 8.64286 0.982993 8.5488 0.772921 8.38602C0.606743 8.25725 0.5 8.06409 0.5 7.72321C0.5 6.6869 0.586514 5.96332 0.73345 5.51515C0.827083 5.22955 0.916071 5.1274 0.972493 5.09109C1.01532 5.11486 1.07029 5.1467 1.13859 5.18767C1.38038 5.33275 1.68006 5.47116 2.02912 5.60517C2.41453 5.75314 2.8057 5.83036 3.2 5.83036C3.39035 5.83036 3.57947 5.81499 3.76716 5.78458ZM1.03333 5.07143C1.03074 5.07143 1.02819 5.07141 1.02568 5.07137C1.02884 5.0712 1.03111 5.07132 1.0324 5.07139C1.03281 5.07141 1.03312 5.07143 1.03333 5.07143ZM13.3667 13.6875C13.3667 14.3032 13.1949 14.73 12.9013 15.0294C12.605 15.3317 12.2029 15.5 11.6417 15.5H4.35833C3.79707 15.5 3.39504 15.3317 3.09871 15.0294C2.80513 14.73 2.63333 14.3032 2.63333 13.6875C2.63333 13.3823 2.64274 13.085 2.66146 12.7957C2.67964 12.5145 2.71629 12.2071 2.7723 11.8728C2.82766 11.5423 2.89686 11.2398 2.97909 10.9645C3.05827 10.6994 3.165 10.4397 3.30002 10.1852C3.43097 9.93839 3.57628 9.73745 3.73298 9.57675C3.87691 9.42914 4.05753 9.30587 4.28281 9.21028C4.47393 9.12918 4.6895 9.08154 4.9345 9.07287C4.96989 9.09342 5.02057 9.12575 5.08881 9.17338C5.27086 9.30047 5.47255 9.44255 5.69392 9.59969L5.98333 9.19197L5.69392 9.59969C5.96817 9.79436 6.31322 9.95612 6.71243 10.0934C7.13475 10.2386 7.56461 10.3125 8 10.3125C8.43539 10.3125 8.86525 10.2386 9.28757 10.0934C9.68678 9.95612 10.0318 9.79436 10.3061 9.59969C10.5275 9.44255 10.7291 9.30047 10.9112 9.17338C10.9794 9.12575 11.0301 9.09342 11.0655 9.07287C11.3105 9.08154 11.5261 9.12918 11.7172 9.21028C11.9425 9.30587 12.1231 9.42914 12.267 9.57675C12.4237 9.73745 12.569 9.93839 12.7 10.1852C12.835 10.4397 12.9417 10.6994 13.0209 10.9645C13.1031 11.2398 13.1723 11.5423 13.2277 11.8728C13.2837 12.2071 13.3204 12.5145 13.3385 12.7957C13.3573 13.085 13.3667 13.3823 13.3667 13.6875ZM4.83333 2.28571C4.83333 2.79467 4.66994 3.21013 4.34281 3.56063C4.01675 3.90997 3.64462 4.07143 3.2 4.07143C2.75538 4.07143 2.38325 3.90997 2.05719 3.56063C1.73006 3.21013 1.56667 2.79467 1.56667 2.28571C1.56667 1.77676 1.73006 1.3613 2.05719 1.0108C2.38325 0.661461 2.75538 0.5 3.2 0.5C3.64462 0.5 4.01675 0.661461 4.34281 1.0108C4.66994 1.3613 4.83333 1.77675 4.83333 2.28571ZM10.7 5.71429C10.7 6.53872 10.4324 7.22352 9.89697 7.79723C9.36259 8.36979 8.73906 8.64286 8 8.64286C7.26094 8.64286 6.63741 8.36979 6.10303 7.79723C5.56756 7.22352 5.3 6.53872 5.3 5.71429C5.3 4.88985 5.56756 4.20505 6.10303 3.63134C6.63741 3.05878 7.26094 2.78571 8 2.78571C8.73906 2.78571 9.36259 3.05878 9.89697 3.63134C10.4324 4.20505 10.7 4.88985 10.7 5.71429ZM14.4333 2.28571C14.4333 2.79467 14.2699 3.21013 13.9428 3.56063C13.6168 3.90997 13.2446 4.07143 12.8 4.07143C12.3554 4.07143 11.9832 3.90997 11.6572 3.56063C11.3301 3.21013 11.1667 2.79467 11.1667 2.28571C11.1667 1.77676 11.3301 1.3613 11.6572 1.0108C11.9832 0.661461 12.3554 0.5 12.8 0.5C13.2446 0.5 13.6168 0.661461 13.9428 1.0108C14.2699 1.3613 14.4333 1.77676 14.4333 2.28571Z" fill="#246BFD" stroke="#246BFD"/>
</g>
<defs>
<clipPath id="clip0_2_776">
<rect width="16" height="16" fill="white"/>
</clipPath>
</defs>
</svg>
