<svg width="30" height="30" viewBox="0 0 30 30" fill="none" xmlns="http://www.w3.org/2000/svg">
<path fill-rule="evenodd" clip-rule="evenodd" d="M21.0667 12.336C21.03 12.3334 20.9893 12.3334 20.9467 12.3334H19.2633C17.8847 12.3334 16.7053 13.4187 16.7053 14.8334C16.7053 16.248 17.8853 17.3334 19.2633 17.3334H20.9467C20.9893 17.3334 21.03 17.3334 21.068 17.3307C21.3513 17.3136 21.6188 17.1941 21.8206 16.9944C22.0223 16.7948 22.1446 16.5285 22.1647 16.2454C22.1673 16.2054 22.1673 16.162 22.1673 16.122V13.5447C22.1673 13.5047 22.1673 13.4614 22.1647 13.4214C22.1446 13.1382 22.0223 12.872 21.8206 12.6723C21.6188 12.4726 21.3513 12.3531 21.068 12.336M19.116 15.5C19.4707 15.5 19.758 15.2014 19.758 14.8334C19.758 14.4654 19.4707 14.1667 19.116 14.1667C18.7607 14.1667 18.4733 14.4654 18.4733 14.8334C18.4733 15.2014 18.7607 15.5 19.116 15.5Z" fill="#A1A1A1"/>
<path fill-rule="evenodd" clip-rule="evenodd" d="M20.9454 18.3333C20.9684 18.3324 20.9914 18.3369 21.0123 18.3465C21.0333 18.3561 21.0517 18.3706 21.0661 18.3886C21.0804 18.4067 21.0903 18.4279 21.0949 18.4505C21.0996 18.4731 21.0988 18.4964 21.0927 18.5187C20.9594 18.9933 20.7467 19.3987 20.406 19.7387C19.9067 20.2387 19.274 20.4593 18.4927 20.5647C17.7327 20.6667 16.7627 20.6667 15.5374 20.6667H14.1294C12.904 20.6667 11.9334 20.6667 11.174 20.5647C10.3927 20.4593 9.76004 20.238 9.26071 19.7393C8.76204 19.24 8.54071 18.6073 8.43537 17.826C8.33337 17.066 8.33337 16.096 8.33337 14.8707V14.796C8.33337 13.5707 8.33337 12.6 8.43537 11.84C8.54071 11.0587 8.76204 10.426 9.26071 9.92667C9.76004 9.428 10.3927 9.20667 11.174 9.10133C11.934 9 12.904 9 14.1294 9H15.5374C16.7627 9 17.7334 9 18.4927 9.102C19.274 9.20733 19.9067 9.42867 20.406 9.92733C20.7467 10.2687 20.9594 10.6733 21.0927 11.148C21.0988 11.1702 21.0996 11.1936 21.0949 11.2162C21.0903 11.2388 21.0804 11.26 21.0661 11.2781C21.0517 11.2961 21.0333 11.3105 21.0123 11.3201C20.9914 11.3297 20.9684 11.3343 20.9454 11.3333H19.2627C17.3714 11.3333 15.7047 12.8267 15.7047 14.8333C15.7047 16.84 17.3714 18.3333 19.2627 18.3333H20.9454ZM10.8334 11.6667C10.7008 11.6667 10.5736 11.7193 10.4798 11.8131C10.3861 11.9069 10.3334 12.0341 10.3334 12.1667C10.3334 12.2993 10.3861 12.4265 10.4798 12.5202C10.5736 12.614 10.7008 12.6667 10.8334 12.6667H13.5C13.6326 12.6667 13.7598 12.614 13.8536 12.5202C13.9474 12.4265 14 12.2993 14 12.1667C14 12.0341 13.9474 11.9069 13.8536 11.8131C13.7598 11.7193 13.6326 11.6667 13.5 11.6667H10.8334Z" fill="#A1A1A1"/>
</svg>
