<svg width="20" height="20" viewBox="0 0 20 20" fill="none" xmlns="http://www.w3.org/2000/svg">
<path d="M15 18.3333C14.3056 18.3333 13.7153 18.0902 13.2292 17.6041C12.7431 17.118 12.5 16.5277 12.5 15.8333C12.5 15.7361 12.5069 15.6352 12.5208 15.5308C12.5347 15.4263 12.5556 15.3327 12.5833 15.25L6.70833 11.8333C6.47222 12.0416 6.20833 12.205 5.91667 12.3233C5.625 12.4416 5.31944 12.5005 5 12.5C4.30556 12.5 3.71528 12.2569 3.22917 11.7708C2.74306 11.2847 2.5 10.6944 2.5 9.99996C2.5 9.30552 2.74306 8.71524 3.22917 8.22913C3.71528 7.74302 4.30556 7.49996 5 7.49996C5.31944 7.49996 5.625 7.55913 5.91667 7.67746C6.20833 7.79579 6.47222 7.95885 6.70833 8.16663L12.5833 4.74996C12.5556 4.66663 12.5347 4.57301 12.5208 4.46913C12.5069 4.36524 12.5 4.2644 12.5 4.16663C12.5 3.47218 12.7431 2.8819 13.2292 2.39579C13.7153 1.90968 14.3056 1.66663 15 1.66663C15.6944 1.66663 16.2847 1.90968 16.7708 2.39579C17.2569 2.8819 17.5 3.47218 17.5 4.16663C17.5 4.86107 17.2569 5.45135 16.7708 5.93746C16.2847 6.42357 15.6944 6.66663 15 6.66663C14.6806 6.66663 14.375 6.60774 14.0833 6.48996C13.7917 6.37218 13.5278 6.20885 13.2917 5.99996L7.41667 9.41663C7.44444 9.49996 7.46528 9.59385 7.47917 9.69829C7.49306 9.80274 7.5 9.90329 7.5 9.99996C7.5 10.0972 7.49306 10.198 7.47917 10.3025C7.46528 10.4069 7.44444 10.5005 7.41667 10.5833L13.2917 14C13.5278 13.7916 13.7917 13.6286 14.0833 13.5108C14.375 13.393 14.6806 13.3338 15 13.3333C15.6944 13.3333 16.2847 13.5763 16.7708 14.0625C17.2569 14.5486 17.5 15.1388 17.5 15.8333C17.5 16.5277 17.2569 17.118 16.7708 17.6041C16.2847 18.0902 15.6944 18.3333 15 18.3333Z" fill="black"/>
</svg>
